<svg width="65" height="64" viewBox="0 0 65 64" fill="none" xmlns="http://www.w3.org/2000/svg">
<path d="M37.0945 38.2969L26 42.0059L29.2667 30.9408M37.0945 38.2969C37.0945 38.2969 36.0017 35.0913 34.4441 33.4752C32.8654 31.8372 29.2667 30.9408 29.2667 30.9408M37.0945 38.2969L59.53 15.9195M29.2667 30.9408L52.072 8.19246M59.53 15.9195C59.53 15.9195 58.3936 12.6305 56.818 10.9742C55.3561 9.43743 52.072 8.19246 52.072 8.19246M59.53 15.9195C59.53 15.9195 62.7581 13.4072 62.9816 10.9742C63.26 7.94413 60.3366 4.64097 56.818 5.03854C54.5265 5.29745 52.072 8.19246 52.072 8.19246" stroke="#FFF367" stroke-width="3.09469" stroke-linejoin="round"/>
<rect x="5.54734" y="45.5532" width="14.9053" height="14.9053" stroke="#FFF367" stroke-width="3.09469" stroke-linejoin="round"/>
</svg>
