<svg width="64" height="62" viewBox="0 0 64 62" fill="none" xmlns="http://www.w3.org/2000/svg">
<rect x="5.54764" y="44.5476" width="15.9047" height="15.9047" rx="7.95236" stroke="#FFF367" stroke-width="3.09527" stroke-linejoin="round"/>
<path d="M36.0945 38.291L25 42L28.2667 30.9349M36.0945 38.291C36.0945 38.291 35.0017 35.0855 33.4441 33.4694C31.8654 31.8313 28.2667 30.9349 28.2667 30.9349M36.0945 38.291L58.53 15.9136M28.2667 30.9349L51.072 8.1866M58.53 15.9136C58.53 15.9136 57.3936 12.6246 55.818 10.9683C54.3561 9.43157 51.072 8.1866 51.072 8.1866M58.53 15.9136C58.53 15.9136 61.7581 13.4014 61.9816 10.9683C62.26 7.93827 59.3366 4.63511 55.818 5.03268C53.5265 5.29159 51.072 8.1866 51.072 8.1866" stroke="#FFF367" stroke-width="3.09469" stroke-linejoin="round"/>
</svg>
