<svg width="130" height="130" viewBox="0 0 130 130" fill="none" xmlns="http://www.w3.org/2000/svg">
<rect width="130" height="130" rx="15" fill="#FD5A47"/>
<path d="M40.7868 12.8145C30.2749 12.8147 13.3759 13.1899 13.3759 13.1899L64.8127 65.002C64.8127 65.002 64.8157 48.1071 64.8157 36.0924C64.8157 31.9627 62.0018 25.1899 57.685 20.6987C53.0948 15.923 47.4108 12.8143 40.7868 12.8145Z" fill="#FC7DA8"/>
<path d="M37.4071 65.001C47.919 65.0007 64.8121 65.001 64.8121 65.001L13.3752 13.1889C13.3752 13.1889 13.3782 29.7084 13.3782 41.723C13.3782 45.8528 16.1921 52.6255 20.5088 57.1167C25.0991 61.8924 30.783 65.0011 37.4071 65.001Z" fill="#FC7DA8"/>
<path d="M117 40.9633C117 30.4514 116.625 13.5554 116.625 13.5554L64.8123 64.9922H93.722C97.8518 64.9922 104.624 62.1753 109.116 57.8586C113.891 53.2684 117 47.5873 117 40.9633Z" fill="#FC7DA8"/>
<path d="M64.8119 37.5894C64.8122 48.1013 64.8119 64.9974 64.8119 64.9974L116.624 13.5605H88.0899C83.9601 13.5605 77.1875 16.3774 72.6964 20.6941C67.9206 25.2844 64.8117 30.9654 64.8119 37.5894Z" fill="#FC7DA8"/>
<path d="M65.1882 92.4076C65.188 81.8957 64.8128 64.9997 64.8128 64.9997L13.0005 116.437H41.9103C46.04 116.437 52.8126 113.62 57.3038 109.303C62.0795 104.713 65.1884 99.0317 65.1882 92.4076Z" fill="#FC7DA8"/>
<path d="M13.0001 89.0289C13.0004 99.5408 13.0001 116.437 13.0001 116.437L64.8124 65H36.2781C32.1483 65 25.3757 67.8169 20.8846 72.1336C16.1089 76.7238 13 82.4048 13.0001 89.0289Z" fill="#FC7DA8"/>
<path d="M88.8406 117.186C99.3526 117.185 116.252 116.81 116.252 116.81L64.8147 64.998C64.8147 64.998 64.8118 81.8929 64.8118 93.9076C64.8118 98.0373 67.6257 104.81 71.9424 109.301C76.5327 114.077 82.2166 117.186 88.8406 117.186Z" fill="#FC7DA8"/>
<path d="M92.2204 64.999C81.7085 64.9993 64.8154 64.999 64.8154 64.999L116.252 116.811C116.252 116.811 116.249 100.292 116.249 88.277C116.249 84.1472 113.435 77.3745 109.119 72.8833C104.528 68.1076 98.8444 64.9989 92.2204 64.999Z" fill="#FC7DA8"/>
</svg>
