<svg width="130" height="130" viewBox="0 0 130 130" fill="none" xmlns="http://www.w3.org/2000/svg">
<rect width="130" height="130" rx="15" fill="#FD5A47"/>
<path d="M21.4037 54.5893C13.8671 45.3485 14.5482 31.9029 22.9801 23.4711C31.2651 15.1861 44.4222 14.3651 53.6729 21.5558L79.2011 41.3995C81.1336 42.9017 82.8807 44.6281 84.4057 46.5425L108.209 76.4233C115.512 85.5918 114.768 98.7825 106.479 107.071C98.0873 115.463 84.6933 116.108 75.5344 108.56L47.0505 85.0864C45.4805 83.7926 44.0422 82.3469 42.7564 80.7704L21.4037 54.5893Z" fill="#FFC567"/>
<path d="M75.4115 21.4047C84.6523 13.8681 98.0979 14.5492 106.53 22.9811C114.815 31.2661 115.636 44.4232 108.445 53.6739L88.6013 79.2021C87.0992 81.1346 85.3728 82.8817 83.4583 84.4067L53.5776 108.21C44.4091 115.513 31.2183 114.769 22.9296 106.48C14.5375 98.0883 13.8932 84.6943 21.441 75.5354L44.9144 47.0515C46.2082 45.4815 47.6539 44.0432 49.2304 42.7574L75.4115 21.4047Z" fill="#FFC567"/>
</svg>
