<svg width="130" height="130" viewBox="0 0 130 130" fill="none" xmlns="http://www.w3.org/2000/svg">
<rect x="130" y="130" width="130" height="130" rx="15" transform="rotate(180 130 130)" fill="#FD5A47"/>
<path d="M31.0299 45.5612C24.1605 35.2093 11.8548 21.9985 16.8926 17.2889C21.9304 12.5792 36.142 26.5427 46.3461 32.994C69.1241 54.2012 75.8006 63.2339 97.0078 84.8338C103.422 94.9003 117.498 107.223 112.718 112.721C107.938 118.219 94.9075 104.994 84.4406 98.1864C64.0188 78.1574 52.2371 67.5538 31.0299 45.5612Z" fill="#FFC567"/>
<path d="M84.4403 32.9911C94.7922 26.1217 108.004 12.2452 112.714 17.283C117.423 22.3208 103.459 36.5324 97.0077 46.7364C75.8005 69.5144 67.9458 75.7988 46.3459 97.0061C36.2794 103.42 22.7795 117.888 17.2814 113.108C11.7832 108.328 25.3998 95.2984 32.2078 84.8316C52.2368 64.4098 62.4477 54.1982 84.4403 32.9911Z" fill="#FFC567"/>
<path d="M43.99 25.1381C42.8605 15.4628 55.4562 10.9896 65.1972 11C75.0159 11.0105 88.0305 15.4782 86.7972 25.5309C86.4781 28.1322 84.4391 32.9927 84.4391 32.9927V97.7933C84.4391 97.7933 86.2914 103.717 86.4027 106.432C86.8158 116.51 74.8903 119 64.8041 119C55.3787 119 41.9794 114.704 43.2029 105.254C43.5908 102.258 46.3447 97.0079 46.3447 97.0079V32.9927C46.3447 32.9927 44.2939 27.7412 43.99 25.1381Z" fill="#FFC567"/>
<path d="M104.862 44.3808C114.537 43.2513 119.011 55.8469 119 65.5879C118.99 75.4067 114.522 88.4213 104.469 87.188C101.868 86.8689 97.0075 84.8298 97.0075 84.8298H32.2069C32.2069 84.8298 26.2832 86.6822 23.5678 86.7935C13.49 87.2066 10.9998 75.2811 10.9998 65.1948C10.9998 55.7694 15.2962 42.3702 24.746 43.5937C27.742 43.9816 32.9924 46.7355 32.9924 46.7355H97.0075C97.0075 46.7355 102.259 44.6847 104.862 44.3808Z" fill="#FFC567"/>
</svg>
